<?xml version="1.0" encoding="utf-8"?>
<!-- Generator: Adobe Illustrator 23.0.1, SVG Export Plug-In . SVG Version: 6.00 Build 0)  -->
<svg version="1.1" id="Layer_1" xmlns="http://www.w3.org/2000/svg" xmlns:xlink="http://www.w3.org/1999/xlink" x="0px" y="0px"
	 viewBox="0 0 24 24" style="enable-background:new 0 0 24 24;" xml:space="preserve">
<style type="text/css">
	.st0{fill:#23223B;}
</style>
<path class="st0" d="M20.8,19.3c-3-0.7-6.6-2.4-5.5-4.7c0.7,1.1,2.8,1.8,4.4,0.8c-4.7-1.2,2.3-9.5-3.9-14.1C14.8,0.4,13.4,0,12,0
	c-1.4,0-2.8,0.4-3.9,1.3C1.9,5.9,9,14.2,4.2,15.4c1.6,1,3.8,0.3,4.5-0.8c1.1,2.3-2.6,4-5.5,4.7c-3,0.7-3.2,2.5-3.2,4L0,24h24l0-0.7
	C24,21.8,23.8,20,20.8,19.3z"/>
</svg>
